<?xml version="1.0" encoding="UTF-8"?>
<svg id="Layer_1" data-name="Layer 1" xmlns="http://www.w3.org/2000/svg" viewBox="0 0 4096 4096">
  <defs>
    <style>
      .cls-1 {
        fill: #fff;
        stroke-width: 0px;
      }
    </style>
  </defs>
  <path class="cls-1" d="M3321.48,531.01v921.26c0,13.55,0,27.17.02,40.86v5.13s1.05,5.02,1.05,5.02c20.11,96.39,67.94,176.5,146.21,244.9,65.88,57.56,142.24,97.91,216.09,136.93,52.12,27.54,101.35,53.55,140.92,82.86,38.92,28.83,63.39,57.07,76.73,88.62,7.23,30.87,7.34,57.16.35,80.27-6.34,20.95-18.92,40.17-38.47,58.75-42.5,40.41-111.3,71.99-184.15,105.42-79.02,36.27-160.73,73.77-227.63,129.71-38.16,31.91-67.19,66.16-88.74,104.71-24.25,43.38-38.44,92.21-42.19,145.12l-.11,1.61v1.61c-.09,13.54-.09,27.12-.09,40.25v840.93h-967.45v-840.93c0-12.27,0-24.93.08-37.45,6.9-71.58,40.16-128.19,104.55-178,61.69-47.73,143.28-82.53,222.18-116.2,86.3-36.82,167.82-71.6,226.44-123,16.4-14.39,30.51-29.74,41.92-45.64,12.67-17.65,22.5-36.6,29.21-56.34,7.07-20.78,10.87-42.95,11.3-65.88.43-22.93-2.52-47.3-8.76-72.43l-.81-3.28-1.25-3.14c-10.91-27.46-27.89-53.49-50.47-77.36-19.22-20.33-42.6-39.43-71.47-58.39-50.8-33.37-109.95-60.75-172.56-89.73-78.98-36.56-160.65-74.37-222.88-124.44-65.2-52.46-99.4-110.49-107.47-182.44-.02-12.75-.02-25.45-.02-38.09v-921.26h967.45M3371.48,481.01h-1067.45v971.26c0,13.53,0,27.14.02,40.81,34.66,334.67,543.56,334.67,628.37,548.1,84.82,341.49-593.71,256.12-628.29,642.94-.1,13.39-.1,26.71-.1,39.94v890.93h1067.45v-890.93c0-13.24,0-26.55.08-39.94,27.35-386.82,663.47-301.45,578.65-642.94-84.82-213.43-508.9-213.43-578.72-548.1-.02-13.67-.02-27.27-.02-40.81V481.01h0Z"/>
  <path class="cls-1" d="M1186.58,531.01v921.26c0,13.56,0,27.19.02,40.88v2.73s.31,2.71.31,2.71c6.19,55.7,23.59,107.1,51.71,152.77,24.82,40.3,57.5,76.13,99.92,109.56,33.72,26.58,73.95,51.73,123.01,76.91,42.18,21.65,85.36,40.6,127.11,58.92,66.96,29.38,130.21,57.14,174.18,89.72,20.7,15.34,35.47,30.47,45.14,46.24,9.58,15.62,14.24,32.35,14.24,51.14v4.11l.67,4.06c3.16,19.1,1.4,34.94-5.55,49.84-6.87,14.73-19.04,29.01-37.22,43.65-40.5,32.63-104.17,61.28-171.58,91.62-80.8,36.36-172.39,77.58-249.51,136.86-43.49,33.43-78.1,69.02-105.79,108.79-31.48,45.2-53.49,95.9-65.42,150.69l-1.11,5.08-.04,5.19c-.1,13.57-.1,27.17-.1,40.31v840.93H219.12v-840.93c0-12.07,0-24.52.08-36.84,5.35-44.05,18.24-82.15,39.37-116.41,19.17-31.08,44.89-58.59,78.65-84.09,66.04-49.9,150.95-82.93,233.06-114.88,84.02-32.69,163.38-63.56,219.84-111.31,15.94-13.48,29.63-28.03,40.67-43.23,12.25-16.87,21.71-35.13,28.11-54.29,6.67-19.98,10.18-41.42,10.43-63.72.25-22.08-2.71-45.69-8.79-70.16l-.81-3.28-1.25-3.14c-10.99-27.65-28.12-53.83-50.91-77.81-19.42-20.43-43.05-39.61-72.25-58.65-51.4-33.51-111.43-61.04-174.99-90.19-79.64-36.53-161.99-74.29-225.96-124.45-32.72-25.65-57.77-52.18-76.57-81.12-20.08-30.89-32.74-64.04-38.65-101.25-.01-12.38-.01-24.71-.01-36.98v-921.26h967.45M1236.58,481.01H169.12v971.26c0,13.53,0,27.14.02,40.81,49.16,334.67,558.06,334.67,642.87,548.1,84.82,341.49-593.71,213.43-642.79,642.94-.1,13.39-.1,26.71-.1,39.94v890.93h1067.45v-890.93c0-13.24,0-26.55.1-39.94,84.24-386.82,677.95-344.14,635.54-600.25,0-256.12-593.71-213.43-635.62-590.79-.02-13.67-.02-27.27-.02-40.81V481.01h0Z"/>
</svg>