<?xml version="1.0" encoding="UTF-8"?>
<svg id="Layer_1" data-name="Layer 1" xmlns="http://www.w3.org/2000/svg" viewBox="0 0 935.48 768.93">
  <defs>
    <style>
      .cls-1 {
        fill: none;
        stroke: #fff;
        stroke-miterlimit: 10;
      }
    </style>
  </defs>
  <path class="cls-1" d="M527.05,768.43v-218.31c0-3.24,0-6.51.02-9.79,8.53-94.78,175.88-73.87,154.96-157.54-20.92-52.3-146.43-52.3-154.98-134.3,0-3.35,0-6.68,0-10V.5h263.28v237.99c0,3.32,0,6.65,0,10,17.22,82.01,121.82,82.01,142.73,134.3,20.92,83.68-135.97,62.76-142.72,157.54-.02,3.28-.02,6.54-.02,9.79v218.31h-263.28Z"/>
  <path class="cls-1" d="M.5,768.43v-218.31c0-3.24,0-6.51.02-9.79,12.11-105.24,179.46-73.87,158.54-157.54C138.14,330.5,12.63,330.5.5,248.49c0-3.35,0-6.68,0-10V.5h263.28v237.99c0,3.32,0,6.65,0,10,10.34,92.47,156.77,82.01,156.77,144.76,10.46,62.76-135.97,52.3-156.75,147.08-.02,3.28-.02,6.54-.02,9.79v218.31H.5Z"/>
</svg>